<mxfile host="app.diagrams.net" modified="2024-06-04T11:07:25.322Z" agent="Mozilla/5.0 (Windows NT 10.0; Win64; x64) AppleWebKit/537.36 (KHTML, like Gecko) Chrome/125.0.0.0 Safari/537.36" etag="SgU5ji8lmvQnCyAxvIAy" version="24.4.13" type="device">
  <diagram id="C5RBs43oDa-KdzZeNtuy" name="Page-1">
    <mxGraphModel dx="2722" dy="1752" grid="1" gridSize="10" guides="1" tooltips="1" connect="1" arrows="1" fold="1" page="1" pageScale="1" pageWidth="827" pageHeight="1169" math="0" shadow="0">
      <root>
        <mxCell id="WIyWlLk6GJQsqaUBKTNV-0" />
        <mxCell id="WIyWlLk6GJQsqaUBKTNV-1" parent="WIyWlLk6GJQsqaUBKTNV-0" />
        <mxCell id="xqqkA1xd6eeYMXBdlm9v-109" value="Categoria" style="swimlane;fontStyle=0;childLayout=stackLayout;horizontal=1;startSize=26;horizontalStack=0;resizeParent=1;resizeParentMax=0;resizeLast=0;collapsible=1;marginBottom=0;align=center;fontSize=14;" vertex="1" parent="WIyWlLk6GJQsqaUBKTNV-1">
          <mxGeometry x="-770" y="678" width="120" height="86" as="geometry" />
        </mxCell>
        <mxCell id="xqqkA1xd6eeYMXBdlm9v-110" value="&lt;u&gt;idCat (Long) (PK)&lt;/u&gt;" style="text;strokeColor=none;fillColor=none;spacingLeft=4;spacingRight=4;overflow=hidden;rotatable=0;points=[[0,0.5],[1,0.5]];portConstraint=eastwest;fontSize=12;whiteSpace=wrap;html=1;" vertex="1" parent="xqqkA1xd6eeYMXBdlm9v-109">
          <mxGeometry y="26" width="120" height="30" as="geometry" />
        </mxCell>
        <mxCell id="xqqkA1xd6eeYMXBdlm9v-111" value="nomCat (String)" style="text;strokeColor=none;fillColor=none;spacingLeft=4;spacingRight=4;overflow=hidden;rotatable=0;points=[[0,0.5],[1,0.5]];portConstraint=eastwest;fontSize=12;whiteSpace=wrap;html=1;" vertex="1" parent="xqqkA1xd6eeYMXBdlm9v-109">
          <mxGeometry y="56" width="120" height="30" as="geometry" />
        </mxCell>
        <mxCell id="xqqkA1xd6eeYMXBdlm9v-113" value="Residuo" style="swimlane;fontStyle=0;childLayout=stackLayout;horizontal=1;startSize=26;horizontalStack=0;resizeParent=1;resizeParentMax=0;resizeLast=0;collapsible=1;marginBottom=0;align=center;fontSize=14;" vertex="1" parent="WIyWlLk6GJQsqaUBKTNV-1">
          <mxGeometry x="-570" y="140" width="180" height="656" as="geometry" />
        </mxCell>
        <mxCell id="xqqkA1xd6eeYMXBdlm9v-114" value="&lt;u&gt;idResiduo (Long)&amp;nbsp;&lt;/u&gt;&lt;u&gt;(PK)&lt;/u&gt;" style="text;strokeColor=none;fillColor=none;spacingLeft=4;spacingRight=4;overflow=hidden;rotatable=0;points=[[0,0.5],[1,0.5]];portConstraint=eastwest;fontSize=12;whiteSpace=wrap;html=1;" vertex="1" parent="xqqkA1xd6eeYMXBdlm9v-113">
          <mxGeometry y="26" width="180" height="30" as="geometry" />
        </mxCell>
        <mxCell id="xqqkA1xd6eeYMXBdlm9v-115" value="nomResiduo (String)" style="text;strokeColor=none;fillColor=none;spacingLeft=4;spacingRight=4;overflow=hidden;rotatable=0;points=[[0,0.5],[1,0.5]];portConstraint=eastwest;fontSize=12;whiteSpace=wrap;html=1;" vertex="1" parent="xqqkA1xd6eeYMXBdlm9v-113">
          <mxGeometry y="56" width="180" height="30" as="geometry" />
        </mxCell>
        <mxCell id="xqqkA1xd6eeYMXBdlm9v-118" value="descripResiduo&amp;nbsp;(String)" style="text;strokeColor=none;fillColor=none;spacingLeft=4;spacingRight=4;overflow=hidden;rotatable=0;points=[[0,0.5],[1,0.5]];portConstraint=eastwest;fontSize=12;whiteSpace=wrap;html=1;" vertex="1" parent="xqqkA1xd6eeYMXBdlm9v-113">
          <mxGeometry y="86" width="180" height="30" as="geometry" />
        </mxCell>
        <mxCell id="xqqkA1xd6eeYMXBdlm9v-119" value="codLer&amp;nbsp;(String)" style="text;strokeColor=none;fillColor=none;spacingLeft=4;spacingRight=4;overflow=hidden;rotatable=0;points=[[0,0.5],[1,0.5]];portConstraint=eastwest;fontSize=12;whiteSpace=wrap;html=1;" vertex="1" parent="xqqkA1xd6eeYMXBdlm9v-113">
          <mxGeometry y="116" width="180" height="30" as="geometry" />
        </mxCell>
        <mxCell id="xqqkA1xd6eeYMXBdlm9v-123" value="fechaRegistroResiduo&amp;nbsp;(LocalDateTime)" style="text;strokeColor=none;fillColor=none;spacingLeft=4;spacingRight=4;overflow=hidden;rotatable=0;points=[[0,0.5],[1,0.5]];portConstraint=eastwest;fontSize=12;whiteSpace=wrap;html=1;" vertex="1" parent="xqqkA1xd6eeYMXBdlm9v-113">
          <mxGeometry y="146" width="180" height="30" as="geometry" />
        </mxCell>
        <mxCell id="xqqkA1xd6eeYMXBdlm9v-124" value="masaResiduoKg (Double)" style="text;strokeColor=none;fillColor=none;spacingLeft=4;spacingRight=4;overflow=hidden;rotatable=0;points=[[0,0.5],[1,0.5]];portConstraint=eastwest;fontSize=12;whiteSpace=wrap;html=1;" vertex="1" parent="xqqkA1xd6eeYMXBdlm9v-113">
          <mxGeometry y="176" width="180" height="30" as="geometry" />
        </mxCell>
        <mxCell id="xqqkA1xd6eeYMXBdlm9v-125" value="volumenResiduoM3 (Double)" style="text;strokeColor=none;fillColor=none;spacingLeft=4;spacingRight=4;overflow=hidden;rotatable=0;points=[[0,0.5],[1,0.5]];portConstraint=eastwest;fontSize=12;whiteSpace=wrap;html=1;" vertex="1" parent="xqqkA1xd6eeYMXBdlm9v-113">
          <mxGeometry y="206" width="180" height="30" as="geometry" />
        </mxCell>
        <mxCell id="xqqkA1xd6eeYMXBdlm9v-120" value="dirCalleResiduo&amp;nbsp;(String)" style="text;strokeColor=none;fillColor=none;spacingLeft=4;spacingRight=4;overflow=hidden;rotatable=0;points=[[0,0.5],[1,0.5]];portConstraint=eastwest;fontSize=12;whiteSpace=wrap;html=1;" vertex="1" parent="xqqkA1xd6eeYMXBdlm9v-113">
          <mxGeometry y="236" width="180" height="30" as="geometry" />
        </mxCell>
        <mxCell id="xqqkA1xd6eeYMXBdlm9v-122" value="dirNumResiduo (Integer)" style="text;strokeColor=none;fillColor=none;spacingLeft=4;spacingRight=4;overflow=hidden;rotatable=0;points=[[0,0.5],[1,0.5]];portConstraint=eastwest;fontSize=12;whiteSpace=wrap;html=1;" vertex="1" parent="xqqkA1xd6eeYMXBdlm9v-113">
          <mxGeometry y="266" width="180" height="30" as="geometry" />
        </mxCell>
        <mxCell id="xqqkA1xd6eeYMXBdlm9v-121" value="dirCodPostalResiduo (Long)" style="text;strokeColor=none;fillColor=none;spacingLeft=4;spacingRight=4;overflow=hidden;rotatable=0;points=[[0,0.5],[1,0.5]];portConstraint=eastwest;fontSize=12;whiteSpace=wrap;html=1;" vertex="1" parent="xqqkA1xd6eeYMXBdlm9v-113">
          <mxGeometry y="296" width="180" height="30" as="geometry" />
        </mxCell>
        <mxCell id="xqqkA1xd6eeYMXBdlm9v-117" value="dirLocalidadResiduo&amp;nbsp;(String)" style="text;strokeColor=none;fillColor=none;spacingLeft=4;spacingRight=4;overflow=hidden;rotatable=0;points=[[0,0.5],[1,0.5]];portConstraint=eastwest;fontSize=12;whiteSpace=wrap;html=1;" vertex="1" parent="xqqkA1xd6eeYMXBdlm9v-113">
          <mxGeometry y="326" width="180" height="30" as="geometry" />
        </mxCell>
        <mxCell id="xqqkA1xd6eeYMXBdlm9v-116" value="dirProvinciaResiduo&amp;nbsp;(String)" style="text;strokeColor=none;fillColor=none;spacingLeft=4;spacingRight=4;overflow=hidden;rotatable=0;points=[[0,0.5],[1,0.5]];portConstraint=eastwest;fontSize=12;whiteSpace=wrap;html=1;" vertex="1" parent="xqqkA1xd6eeYMXBdlm9v-113">
          <mxGeometry y="356" width="180" height="30" as="geometry" />
        </mxCell>
        <mxCell id="xqqkA1xd6eeYMXBdlm9v-127" value="solicitado (Boolean)" style="text;strokeColor=none;fillColor=none;spacingLeft=4;spacingRight=4;overflow=hidden;rotatable=0;points=[[0,0.5],[1,0.5]];portConstraint=eastwest;fontSize=12;whiteSpace=wrap;html=1;" vertex="1" parent="xqqkA1xd6eeYMXBdlm9v-113">
          <mxGeometry y="386" width="180" height="30" as="geometry" />
        </mxCell>
        <mxCell id="xqqkA1xd6eeYMXBdlm9v-129" value="solicitante (Usuario)" style="text;strokeColor=none;fillColor=none;spacingLeft=4;spacingRight=4;overflow=hidden;rotatable=0;points=[[0,0.5],[1,0.5]];portConstraint=eastwest;fontSize=12;whiteSpace=wrap;html=1;" vertex="1" parent="xqqkA1xd6eeYMXBdlm9v-113">
          <mxGeometry y="416" width="180" height="30" as="geometry" />
        </mxCell>
        <mxCell id="xqqkA1xd6eeYMXBdlm9v-128" value="reservado (Boolean)" style="text;strokeColor=none;fillColor=none;spacingLeft=4;spacingRight=4;overflow=hidden;rotatable=0;points=[[0,0.5],[1,0.5]];portConstraint=eastwest;fontSize=12;whiteSpace=wrap;html=1;" vertex="1" parent="xqqkA1xd6eeYMXBdlm9v-113">
          <mxGeometry y="446" width="180" height="30" as="geometry" />
        </mxCell>
        <mxCell id="xqqkA1xd6eeYMXBdlm9v-126" value="gestor (Usuario)" style="text;strokeColor=none;fillColor=none;spacingLeft=4;spacingRight=4;overflow=hidden;rotatable=0;points=[[0,0.5],[1,0.5]];portConstraint=eastwest;fontSize=12;whiteSpace=wrap;html=1;" vertex="1" parent="xqqkA1xd6eeYMXBdlm9v-113">
          <mxGeometry y="476" width="180" height="30" as="geometry" />
        </mxCell>
        <mxCell id="xqqkA1xd6eeYMXBdlm9v-132" value="recogido (Boolean)" style="text;strokeColor=none;fillColor=none;spacingLeft=4;spacingRight=4;overflow=hidden;rotatable=0;points=[[0,0.5],[1,0.5]];portConstraint=eastwest;fontSize=12;whiteSpace=wrap;html=1;" vertex="1" parent="xqqkA1xd6eeYMXBdlm9v-113">
          <mxGeometry y="506" width="180" height="30" as="geometry" />
        </mxCell>
        <mxCell id="xqqkA1xd6eeYMXBdlm9v-131" value="bloqueado (Boolean)" style="text;strokeColor=none;fillColor=none;spacingLeft=4;spacingRight=4;overflow=hidden;rotatable=0;points=[[0,0.5],[1,0.5]];portConstraint=eastwest;fontSize=12;whiteSpace=wrap;html=1;" vertex="1" parent="xqqkA1xd6eeYMXBdlm9v-113">
          <mxGeometry y="536" width="180" height="30" as="geometry" />
        </mxCell>
        <mxCell id="xqqkA1xd6eeYMXBdlm9v-130" value="categoria (Categoria) (FK)" style="text;strokeColor=none;fillColor=none;spacingLeft=4;spacingRight=4;overflow=hidden;rotatable=0;points=[[0,0.5],[1,0.5]];portConstraint=eastwest;fontSize=12;whiteSpace=wrap;html=1;" vertex="1" parent="xqqkA1xd6eeYMXBdlm9v-113">
          <mxGeometry y="566" width="180" height="30" as="geometry" />
        </mxCell>
        <mxCell id="xqqkA1xd6eeYMXBdlm9v-134" value="productor (Usuario) (FK)" style="text;strokeColor=none;fillColor=none;spacingLeft=4;spacingRight=4;overflow=hidden;rotatable=0;points=[[0,0.5],[1,0.5]];portConstraint=eastwest;fontSize=12;whiteSpace=wrap;html=1;" vertex="1" parent="xqqkA1xd6eeYMXBdlm9v-113">
          <mxGeometry y="596" width="180" height="30" as="geometry" />
        </mxCell>
        <mxCell id="xqqkA1xd6eeYMXBdlm9v-133" value="ruta (Ruta) (FK)" style="text;strokeColor=none;fillColor=none;spacingLeft=4;spacingRight=4;overflow=hidden;rotatable=0;points=[[0,0.5],[1,0.5]];portConstraint=eastwest;fontSize=12;whiteSpace=wrap;html=1;" vertex="1" parent="xqqkA1xd6eeYMXBdlm9v-113">
          <mxGeometry y="626" width="180" height="30" as="geometry" />
        </mxCell>
        <mxCell id="xqqkA1xd6eeYMXBdlm9v-148" value="Usuario" style="swimlane;fontStyle=0;childLayout=stackLayout;horizontal=1;startSize=26;horizontalStack=0;resizeParent=1;resizeParentMax=0;resizeLast=0;collapsible=1;marginBottom=0;align=center;fontSize=14;" vertex="1" parent="WIyWlLk6GJQsqaUBKTNV-1">
          <mxGeometry x="-265" y="350" width="180" height="386" as="geometry" />
        </mxCell>
        <mxCell id="xqqkA1xd6eeYMXBdlm9v-149" value="&lt;u&gt;idUser (Long)&amp;nbsp;&lt;/u&gt;&lt;u&gt;(PK)&lt;/u&gt;" style="text;strokeColor=none;fillColor=none;spacingLeft=4;spacingRight=4;overflow=hidden;rotatable=0;points=[[0,0.5],[1,0.5]];portConstraint=eastwest;fontSize=12;whiteSpace=wrap;html=1;" vertex="1" parent="xqqkA1xd6eeYMXBdlm9v-148">
          <mxGeometry y="26" width="180" height="30" as="geometry" />
        </mxCell>
        <mxCell id="xqqkA1xd6eeYMXBdlm9v-150" value="nomUser (String)" style="text;strokeColor=none;fillColor=none;spacingLeft=4;spacingRight=4;overflow=hidden;rotatable=0;points=[[0,0.5],[1,0.5]];portConstraint=eastwest;fontSize=12;whiteSpace=wrap;html=1;" vertex="1" parent="xqqkA1xd6eeYMXBdlm9v-148">
          <mxGeometry y="56" width="180" height="30" as="geometry" />
        </mxCell>
        <mxCell id="xqqkA1xd6eeYMXBdlm9v-151" value="passUser (String)" style="text;strokeColor=none;fillColor=none;spacingLeft=4;spacingRight=4;overflow=hidden;rotatable=0;points=[[0,0.5],[1,0.5]];portConstraint=eastwest;fontSize=12;whiteSpace=wrap;html=1;" vertex="1" parent="xqqkA1xd6eeYMXBdlm9v-148">
          <mxGeometry y="86" width="180" height="30" as="geometry" />
        </mxCell>
        <mxCell id="xqqkA1xd6eeYMXBdlm9v-152" value="fechaRegistro (LocalDateTime)" style="text;strokeColor=none;fillColor=none;spacingLeft=4;spacingRight=4;overflow=hidden;rotatable=0;points=[[0,0.5],[1,0.5]];portConstraint=eastwest;fontSize=12;whiteSpace=wrap;html=1;" vertex="1" parent="xqqkA1xd6eeYMXBdlm9v-148">
          <mxGeometry y="116" width="180" height="30" as="geometry" />
        </mxCell>
        <mxCell id="xqqkA1xd6eeYMXBdlm9v-154" value="dniNif (String)" style="text;strokeColor=none;fillColor=none;spacingLeft=4;spacingRight=4;overflow=hidden;rotatable=0;points=[[0,0.5],[1,0.5]];portConstraint=eastwest;fontSize=12;whiteSpace=wrap;html=1;" vertex="1" parent="xqqkA1xd6eeYMXBdlm9v-148">
          <mxGeometry y="146" width="180" height="30" as="geometry" />
        </mxCell>
        <mxCell id="xqqkA1xd6eeYMXBdlm9v-155" value="emailUser (String)" style="text;strokeColor=none;fillColor=none;spacingLeft=4;spacingRight=4;overflow=hidden;rotatable=0;points=[[0,0.5],[1,0.5]];portConstraint=eastwest;fontSize=12;whiteSpace=wrap;html=1;" vertex="1" parent="xqqkA1xd6eeYMXBdlm9v-148">
          <mxGeometry y="176" width="180" height="30" as="geometry" />
        </mxCell>
        <mxCell id="xqqkA1xd6eeYMXBdlm9v-156" value="tlfUser (Long)" style="text;strokeColor=none;fillColor=none;spacingLeft=4;spacingRight=4;overflow=hidden;rotatable=0;points=[[0,0.5],[1,0.5]];portConstraint=eastwest;fontSize=12;whiteSpace=wrap;html=1;" vertex="1" parent="xqqkA1xd6eeYMXBdlm9v-148">
          <mxGeometry y="206" width="180" height="30" as="geometry" />
        </mxCell>
        <mxCell id="xqqkA1xd6eeYMXBdlm9v-157" value="dirUser (String)" style="text;strokeColor=none;fillColor=none;spacingLeft=4;spacingRight=4;overflow=hidden;rotatable=0;points=[[0,0.5],[1,0.5]];portConstraint=eastwest;fontSize=12;whiteSpace=wrap;html=1;" vertex="1" parent="xqqkA1xd6eeYMXBdlm9v-148">
          <mxGeometry y="236" width="180" height="30" as="geometry" />
        </mxCell>
        <mxCell id="xqqkA1xd6eeYMXBdlm9v-158" value="rol (Rol)" style="text;strokeColor=none;fillColor=none;spacingLeft=4;spacingRight=4;overflow=hidden;rotatable=0;points=[[0,0.5],[1,0.5]];portConstraint=eastwest;fontSize=12;whiteSpace=wrap;html=1;" vertex="1" parent="xqqkA1xd6eeYMXBdlm9v-148">
          <mxGeometry y="266" width="180" height="30" as="geometry" />
        </mxCell>
        <mxCell id="xqqkA1xd6eeYMXBdlm9v-159" value="gestor (Boolean)" style="text;strokeColor=none;fillColor=none;spacingLeft=4;spacingRight=4;overflow=hidden;rotatable=0;points=[[0,0.5],[1,0.5]];portConstraint=eastwest;fontSize=12;whiteSpace=wrap;html=1;" vertex="1" parent="xqqkA1xd6eeYMXBdlm9v-148">
          <mxGeometry y="296" width="180" height="30" as="geometry" />
        </mxCell>
        <mxCell id="xqqkA1xd6eeYMXBdlm9v-160" value="puntuacion (Double)" style="text;strokeColor=none;fillColor=none;spacingLeft=4;spacingRight=4;overflow=hidden;rotatable=0;points=[[0,0.5],[1,0.5]];portConstraint=eastwest;fontSize=12;whiteSpace=wrap;html=1;" vertex="1" parent="xqqkA1xd6eeYMXBdlm9v-148">
          <mxGeometry y="326" width="180" height="30" as="geometry" />
        </mxCell>
        <mxCell id="xqqkA1xd6eeYMXBdlm9v-161" value="userActivo (Boolean)" style="text;strokeColor=none;fillColor=none;spacingLeft=4;spacingRight=4;overflow=hidden;rotatable=0;points=[[0,0.5],[1,0.5]];portConstraint=eastwest;fontSize=12;whiteSpace=wrap;html=1;" vertex="1" parent="xqqkA1xd6eeYMXBdlm9v-148">
          <mxGeometry y="356" width="180" height="30" as="geometry" />
        </mxCell>
        <mxCell id="xqqkA1xd6eeYMXBdlm9v-170" value="Ruta" style="swimlane;fontStyle=0;childLayout=stackLayout;horizontal=1;startSize=26;horizontalStack=0;resizeParent=1;resizeParentMax=0;resizeLast=0;collapsible=1;marginBottom=0;align=center;fontSize=14;" vertex="1" parent="WIyWlLk6GJQsqaUBKTNV-1">
          <mxGeometry x="-280" y="776" width="210" height="356" as="geometry" />
        </mxCell>
        <mxCell id="xqqkA1xd6eeYMXBdlm9v-171" value="&lt;u&gt;idRuta (Long)&amp;nbsp;&lt;/u&gt;&lt;u&gt;(PK)&lt;/u&gt;" style="text;strokeColor=none;fillColor=none;spacingLeft=4;spacingRight=4;overflow=hidden;rotatable=0;points=[[0,0.5],[1,0.5]];portConstraint=eastwest;fontSize=12;whiteSpace=wrap;html=1;" vertex="1" parent="xqqkA1xd6eeYMXBdlm9v-170">
          <mxGeometry y="26" width="210" height="30" as="geometry" />
        </mxCell>
        <mxCell id="xqqkA1xd6eeYMXBdlm9v-172" value="masaTotal (Double)" style="text;strokeColor=none;fillColor=none;spacingLeft=4;spacingRight=4;overflow=hidden;rotatable=0;points=[[0,0.5],[1,0.5]];portConstraint=eastwest;fontSize=12;whiteSpace=wrap;html=1;" vertex="1" parent="xqqkA1xd6eeYMXBdlm9v-170">
          <mxGeometry y="56" width="210" height="30" as="geometry" />
        </mxCell>
        <mxCell id="xqqkA1xd6eeYMXBdlm9v-173" value="volumenTotal (Double)" style="text;strokeColor=none;fillColor=none;spacingLeft=4;spacingRight=4;overflow=hidden;rotatable=0;points=[[0,0.5],[1,0.5]];portConstraint=eastwest;fontSize=12;whiteSpace=wrap;html=1;" vertex="1" parent="xqqkA1xd6eeYMXBdlm9v-170">
          <mxGeometry y="86" width="210" height="30" as="geometry" />
        </mxCell>
        <mxCell id="xqqkA1xd6eeYMXBdlm9v-174" value="descripRuta (String)" style="text;strokeColor=none;fillColor=none;spacingLeft=4;spacingRight=4;overflow=hidden;rotatable=0;points=[[0,0.5],[1,0.5]];portConstraint=eastwest;fontSize=12;whiteSpace=wrap;html=1;" vertex="1" parent="xqqkA1xd6eeYMXBdlm9v-170">
          <mxGeometry y="116" width="210" height="30" as="geometry" />
        </mxCell>
        <mxCell id="xqqkA1xd6eeYMXBdlm9v-175" value="rutaCreada (Boolean)" style="text;strokeColor=none;fillColor=none;spacingLeft=4;spacingRight=4;overflow=hidden;rotatable=0;points=[[0,0.5],[1,0.5]];portConstraint=eastwest;fontSize=12;whiteSpace=wrap;html=1;" vertex="1" parent="xqqkA1xd6eeYMXBdlm9v-170">
          <mxGeometry y="146" width="210" height="30" as="geometry" />
        </mxCell>
        <mxCell id="xqqkA1xd6eeYMXBdlm9v-176" value="fechaCreacionRuta (LocalDateTime)" style="text;strokeColor=none;fillColor=none;spacingLeft=4;spacingRight=4;overflow=hidden;rotatable=0;points=[[0,0.5],[1,0.5]];portConstraint=eastwest;fontSize=12;whiteSpace=wrap;html=1;" vertex="1" parent="xqqkA1xd6eeYMXBdlm9v-170">
          <mxGeometry y="176" width="210" height="30" as="geometry" />
        </mxCell>
        <mxCell id="xqqkA1xd6eeYMXBdlm9v-177" value="rutaEnCurso (Boolean)" style="text;strokeColor=none;fillColor=none;spacingLeft=4;spacingRight=4;overflow=hidden;rotatable=0;points=[[0,0.5],[1,0.5]];portConstraint=eastwest;fontSize=12;whiteSpace=wrap;html=1;" vertex="1" parent="xqqkA1xd6eeYMXBdlm9v-170">
          <mxGeometry y="206" width="210" height="30" as="geometry" />
        </mxCell>
        <mxCell id="xqqkA1xd6eeYMXBdlm9v-178" value="fechaInicioRuta (LocalDateTime)" style="text;strokeColor=none;fillColor=none;spacingLeft=4;spacingRight=4;overflow=hidden;rotatable=0;points=[[0,0.5],[1,0.5]];portConstraint=eastwest;fontSize=12;whiteSpace=wrap;html=1;" vertex="1" parent="xqqkA1xd6eeYMXBdlm9v-170">
          <mxGeometry y="236" width="210" height="30" as="geometry" />
        </mxCell>
        <mxCell id="xqqkA1xd6eeYMXBdlm9v-179" value="rutaTerminada (Boolean)" style="text;strokeColor=none;fillColor=none;spacingLeft=4;spacingRight=4;overflow=hidden;rotatable=0;points=[[0,0.5],[1,0.5]];portConstraint=eastwest;fontSize=12;whiteSpace=wrap;html=1;" vertex="1" parent="xqqkA1xd6eeYMXBdlm9v-170">
          <mxGeometry y="266" width="210" height="30" as="geometry" />
        </mxCell>
        <mxCell id="xqqkA1xd6eeYMXBdlm9v-180" value="fechaFinRuta (LocalDateTime)" style="text;strokeColor=none;fillColor=none;spacingLeft=4;spacingRight=4;overflow=hidden;rotatable=0;points=[[0,0.5],[1,0.5]];portConstraint=eastwest;fontSize=12;whiteSpace=wrap;html=1;" vertex="1" parent="xqqkA1xd6eeYMXBdlm9v-170">
          <mxGeometry y="296" width="210" height="30" as="geometry" />
        </mxCell>
        <mxCell id="xqqkA1xd6eeYMXBdlm9v-181" value="gestor (Usuario) (FK)" style="text;strokeColor=none;fillColor=none;spacingLeft=4;spacingRight=4;overflow=hidden;rotatable=0;points=[[0,0.5],[1,0.5]];portConstraint=eastwest;fontSize=12;whiteSpace=wrap;html=1;" vertex="1" parent="xqqkA1xd6eeYMXBdlm9v-170">
          <mxGeometry y="326" width="210" height="30" as="geometry" />
        </mxCell>
        <mxCell id="xqqkA1xd6eeYMXBdlm9v-183" value="Incidencia" style="swimlane;fontStyle=0;childLayout=stackLayout;horizontal=1;startSize=26;horizontalStack=0;resizeParent=1;resizeParentMax=0;resizeLast=0;collapsible=1;marginBottom=0;align=center;fontSize=14;" vertex="1" parent="WIyWlLk6GJQsqaUBKTNV-1">
          <mxGeometry x="-300" y="10" width="250" height="296" as="geometry" />
        </mxCell>
        <mxCell id="xqqkA1xd6eeYMXBdlm9v-184" value="&lt;u&gt;idIncidencia (Long)&amp;nbsp;&lt;/u&gt;&lt;u&gt;(PK)&lt;/u&gt;" style="text;strokeColor=none;fillColor=none;spacingLeft=4;spacingRight=4;overflow=hidden;rotatable=0;points=[[0,0.5],[1,0.5]];portConstraint=eastwest;fontSize=12;whiteSpace=wrap;html=1;" vertex="1" parent="xqqkA1xd6eeYMXBdlm9v-183">
          <mxGeometry y="26" width="250" height="30" as="geometry" />
        </mxCell>
        <mxCell id="xqqkA1xd6eeYMXBdlm9v-189" value="fechaCreacionIncidencia (LocalDateTime)" style="text;strokeColor=none;fillColor=none;spacingLeft=4;spacingRight=4;overflow=hidden;rotatable=0;points=[[0,0.5],[1,0.5]];portConstraint=eastwest;fontSize=12;whiteSpace=wrap;html=1;" vertex="1" parent="xqqkA1xd6eeYMXBdlm9v-183">
          <mxGeometry y="56" width="250" height="30" as="geometry" />
        </mxCell>
        <mxCell id="xqqkA1xd6eeYMXBdlm9v-190" value="comentarioIncidencia (String)" style="text;strokeColor=none;fillColor=none;spacingLeft=4;spacingRight=4;overflow=hidden;rotatable=0;points=[[0,0.5],[1,0.5]];portConstraint=eastwest;fontSize=12;whiteSpace=wrap;html=1;" vertex="1" parent="xqqkA1xd6eeYMXBdlm9v-183">
          <mxGeometry y="86" width="250" height="30" as="geometry" />
        </mxCell>
        <mxCell id="xqqkA1xd6eeYMXBdlm9v-191" value="hiloIncidencia (ArrayList &amp;lt;String&amp;gt;)" style="text;strokeColor=none;fillColor=none;spacingLeft=4;spacingRight=4;overflow=hidden;rotatable=0;points=[[0,0.5],[1,0.5]];portConstraint=eastwest;fontSize=12;whiteSpace=wrap;html=1;" vertex="1" parent="xqqkA1xd6eeYMXBdlm9v-183">
          <mxGeometry y="116" width="250" height="30" as="geometry" />
        </mxCell>
        <mxCell id="xqqkA1xd6eeYMXBdlm9v-192" value="incidenciaCerrada (Boolean)" style="text;strokeColor=none;fillColor=none;spacingLeft=4;spacingRight=4;overflow=hidden;rotatable=0;points=[[0,0.5],[1,0.5]];portConstraint=eastwest;fontSize=12;whiteSpace=wrap;html=1;" vertex="1" parent="xqqkA1xd6eeYMXBdlm9v-183">
          <mxGeometry y="146" width="250" height="30" as="geometry" />
        </mxCell>
        <mxCell id="xqqkA1xd6eeYMXBdlm9v-207" value="valoracionIncidencia (Integer)" style="text;strokeColor=none;fillColor=none;spacingLeft=4;spacingRight=4;overflow=hidden;rotatable=0;points=[[0,0.5],[1,0.5]];portConstraint=eastwest;fontSize=12;whiteSpace=wrap;html=1;" vertex="1" parent="xqqkA1xd6eeYMXBdlm9v-183">
          <mxGeometry y="176" width="250" height="30" as="geometry" />
        </mxCell>
        <mxCell id="xqqkA1xd6eeYMXBdlm9v-193" value="residuoIncidencia (Residuo)" style="text;strokeColor=none;fillColor=none;spacingLeft=4;spacingRight=4;overflow=hidden;rotatable=0;points=[[0,0.5],[1,0.5]];portConstraint=eastwest;fontSize=12;whiteSpace=wrap;html=1;" vertex="1" parent="xqqkA1xd6eeYMXBdlm9v-183">
          <mxGeometry y="206" width="250" height="30" as="geometry" />
        </mxCell>
        <mxCell id="xqqkA1xd6eeYMXBdlm9v-195" value="usuarioReceptor (Usuario) (FK)" style="text;strokeColor=none;fillColor=none;spacingLeft=4;spacingRight=4;overflow=hidden;rotatable=0;points=[[0,0.5],[1,0.5]];portConstraint=eastwest;fontSize=12;whiteSpace=wrap;html=1;" vertex="1" parent="xqqkA1xd6eeYMXBdlm9v-183">
          <mxGeometry y="236" width="250" height="30" as="geometry" />
        </mxCell>
        <mxCell id="xqqkA1xd6eeYMXBdlm9v-194" value="usuarioEmisor (Usuario) (FK)" style="text;strokeColor=none;fillColor=none;spacingLeft=4;spacingRight=4;overflow=hidden;rotatable=0;points=[[0,0.5],[1,0.5]];portConstraint=eastwest;fontSize=12;whiteSpace=wrap;html=1;" vertex="1" parent="xqqkA1xd6eeYMXBdlm9v-183">
          <mxGeometry y="266" width="250" height="30" as="geometry" />
        </mxCell>
        <mxCell id="xqqkA1xd6eeYMXBdlm9v-196" value="" style="edgeStyle=entityRelationEdgeStyle;fontSize=12;html=1;endArrow=ERmany;rounded=0;exitX=1;exitY=0.5;exitDx=0;exitDy=0;entryX=0;entryY=0.5;entryDx=0;entryDy=0;endFill=0;" edge="1" parent="WIyWlLk6GJQsqaUBKTNV-1" source="xqqkA1xd6eeYMXBdlm9v-110" target="xqqkA1xd6eeYMXBdlm9v-130">
          <mxGeometry width="100" height="100" relative="1" as="geometry">
            <mxPoint x="-220" y="306" as="sourcePoint" />
            <mxPoint x="-120" y="206" as="targetPoint" />
          </mxGeometry>
        </mxCell>
        <mxCell id="xqqkA1xd6eeYMXBdlm9v-201" value="" style="edgeStyle=entityRelationEdgeStyle;fontSize=12;html=1;endArrow=ERmany;rounded=0;endFill=0;" edge="1" parent="WIyWlLk6GJQsqaUBKTNV-1" source="xqqkA1xd6eeYMXBdlm9v-171" target="xqqkA1xd6eeYMXBdlm9v-133">
          <mxGeometry width="100" height="100" relative="1" as="geometry">
            <mxPoint x="-650" y="729" as="sourcePoint" />
            <mxPoint x="-560" y="731" as="targetPoint" />
          </mxGeometry>
        </mxCell>
        <mxCell id="xqqkA1xd6eeYMXBdlm9v-202" value="" style="edgeStyle=entityRelationEdgeStyle;fontSize=12;html=1;endArrow=ERmany;rounded=0;endFill=0;" edge="1" parent="WIyWlLk6GJQsqaUBKTNV-1" source="xqqkA1xd6eeYMXBdlm9v-149" target="xqqkA1xd6eeYMXBdlm9v-134">
          <mxGeometry width="100" height="100" relative="1" as="geometry">
            <mxPoint x="-360" y="626" as="sourcePoint" />
            <mxPoint x="-270" y="546" as="targetPoint" />
          </mxGeometry>
        </mxCell>
        <mxCell id="xqqkA1xd6eeYMXBdlm9v-203" value="" style="edgeStyle=entityRelationEdgeStyle;fontSize=12;html=1;endArrow=ERmany;rounded=0;endFill=0;" edge="1" parent="WIyWlLk6GJQsqaUBKTNV-1" source="xqqkA1xd6eeYMXBdlm9v-149" target="xqqkA1xd6eeYMXBdlm9v-181">
          <mxGeometry width="100" height="100" relative="1" as="geometry">
            <mxPoint x="-253" y="184" as="sourcePoint" />
            <mxPoint x="-380" y="761" as="targetPoint" />
          </mxGeometry>
        </mxCell>
        <mxCell id="xqqkA1xd6eeYMXBdlm9v-204" value="" style="edgeStyle=entityRelationEdgeStyle;fontSize=12;html=1;endArrow=ERmany;rounded=0;exitX=0.999;exitY=0.249;exitDx=0;exitDy=0;exitPerimeter=0;endFill=0;" edge="1" parent="WIyWlLk6GJQsqaUBKTNV-1" source="xqqkA1xd6eeYMXBdlm9v-149" target="xqqkA1xd6eeYMXBdlm9v-195">
          <mxGeometry width="100" height="100" relative="1" as="geometry">
            <mxPoint x="-250" y="251" as="sourcePoint" />
            <mxPoint x="-380" y="761" as="targetPoint" />
          </mxGeometry>
        </mxCell>
        <mxCell id="xqqkA1xd6eeYMXBdlm9v-206" value="" style="fontSize=12;html=1;endArrow=ERmany;rounded=0;edgeStyle=elbowEdgeStyle;exitX=0;exitY=0.282;exitDx=0;exitDy=0;exitPerimeter=0;" edge="1" parent="WIyWlLk6GJQsqaUBKTNV-1" source="xqqkA1xd6eeYMXBdlm9v-149" target="xqqkA1xd6eeYMXBdlm9v-194">
          <mxGeometry width="100" height="100" relative="1" as="geometry">
            <mxPoint x="-275" y="229.26999999999998" as="sourcePoint" />
            <mxPoint x="-274.99263157894734" y="122" as="targetPoint" />
            <Array as="points">
              <mxPoint x="-320" y="166" />
            </Array>
          </mxGeometry>
        </mxCell>
        <mxCell id="xqqkA1xd6eeYMXBdlm9v-208" value="FormInfo" style="swimlane;fontStyle=0;childLayout=stackLayout;horizontal=1;startSize=26;horizontalStack=0;resizeParent=1;resizeParentMax=0;resizeLast=0;collapsible=1;marginBottom=0;align=center;fontSize=14;" vertex="1" parent="WIyWlLk6GJQsqaUBKTNV-1">
          <mxGeometry x="-805" y="290" width="190" height="206" as="geometry" />
        </mxCell>
        <mxCell id="xqqkA1xd6eeYMXBdlm9v-209" value="&lt;u&gt;idFormInfo (Long) (PK)&lt;/u&gt;" style="text;strokeColor=none;fillColor=none;spacingLeft=4;spacingRight=4;overflow=hidden;rotatable=0;points=[[0,0.5],[1,0.5]];portConstraint=eastwest;fontSize=12;whiteSpace=wrap;html=1;" vertex="1" parent="xqqkA1xd6eeYMXBdlm9v-208">
          <mxGeometry y="26" width="190" height="30" as="geometry" />
        </mxCell>
        <mxCell id="xqqkA1xd6eeYMXBdlm9v-210" value="nombre (String)" style="text;strokeColor=none;fillColor=none;spacingLeft=4;spacingRight=4;overflow=hidden;rotatable=0;points=[[0,0.5],[1,0.5]];portConstraint=eastwest;fontSize=12;whiteSpace=wrap;html=1;" vertex="1" parent="xqqkA1xd6eeYMXBdlm9v-208">
          <mxGeometry y="56" width="190" height="30" as="geometry" />
        </mxCell>
        <mxCell id="xqqkA1xd6eeYMXBdlm9v-211" value="email (String)" style="text;strokeColor=none;fillColor=none;spacingLeft=4;spacingRight=4;overflow=hidden;rotatable=0;points=[[0,0.5],[1,0.5]];portConstraint=eastwest;fontSize=12;whiteSpace=wrap;html=1;" vertex="1" parent="xqqkA1xd6eeYMXBdlm9v-208">
          <mxGeometry y="86" width="190" height="30" as="geometry" />
        </mxCell>
        <mxCell id="xqqkA1xd6eeYMXBdlm9v-212" value="motivo (Integer)" style="text;strokeColor=none;fillColor=none;spacingLeft=4;spacingRight=4;overflow=hidden;rotatable=0;points=[[0,0.5],[1,0.5]];portConstraint=eastwest;fontSize=12;whiteSpace=wrap;html=1;" vertex="1" parent="xqqkA1xd6eeYMXBdlm9v-208">
          <mxGeometry y="116" width="190" height="30" as="geometry" />
        </mxCell>
        <mxCell id="xqqkA1xd6eeYMXBdlm9v-213" value="comentarios (String)" style="text;strokeColor=none;fillColor=none;spacingLeft=4;spacingRight=4;overflow=hidden;rotatable=0;points=[[0,0.5],[1,0.5]];portConstraint=eastwest;fontSize=12;whiteSpace=wrap;html=1;" vertex="1" parent="xqqkA1xd6eeYMXBdlm9v-208">
          <mxGeometry y="146" width="190" height="30" as="geometry" />
        </mxCell>
        <mxCell id="xqqkA1xd6eeYMXBdlm9v-214" value="aceptarCondiciones (Boolean)" style="text;strokeColor=none;fillColor=none;spacingLeft=4;spacingRight=4;overflow=hidden;rotatable=0;points=[[0,0.5],[1,0.5]];portConstraint=eastwest;fontSize=12;whiteSpace=wrap;html=1;" vertex="1" parent="xqqkA1xd6eeYMXBdlm9v-208">
          <mxGeometry y="176" width="190" height="30" as="geometry" />
        </mxCell>
      </root>
    </mxGraphModel>
  </diagram>
</mxfile>
